<?xml version="1.0" encoding="utf-8" ?>
<svg baseProfile="full" height="230px" version="1.1" viewBox="32.5,35,235.0,230" width="235.0px" xmlns="http://www.w3.org/2000/svg" xmlns:ev="http://www.w3.org/2001/xml-events" xmlns:xlink="http://www.w3.org/1999/xlink"><defs /><g><circle cx="102.50000000000003" cy="67.72758664047832" fill="#A6CE39" r="20.3994" stroke="black" stroke-width="3.6" /><rect fill="#823F98" height="36.0" stroke="black" stroke-width="3.6" transform="rotate(-60,67.72758664047832,102.5)" width="36.0" x="49.72758664047832" y="84.5" /><circle cx="55.0" cy="150.0" fill="#fdbb13" r="20.3994" stroke="black" stroke-width="3.6" /><rect fill="#0098DD" height="36.0" stroke="black" stroke-width="3.6" transform="rotate(-120,67.72758664047834,197.5)" width="36.0" x="49.727586640478336" y="179.5" /><circle cx="102.49999999999996" cy="232.27241335952164" fill="#F04E23" r="20.3994" stroke="black" stroke-width="3.6" /><rect fill="#39B54A" height="36.0" stroke="black" stroke-width="3.6" transform="rotate(-180,149.99999999999997,245.0)" width="36.0" x="131.99999999999997" y="227.0" /><circle cx="197.5" cy="232.27241335952166" fill="#AB218E" r="20.3994" stroke="black" stroke-width="3.6" /><rect fill="#F3DC0B" height="36.0" stroke="black" stroke-width="3.6" transform="rotate(-240,232.27241335952164,197.50000000000006)" width="36.0" x="214.27241335952164" y="179.50000000000006" /><circle cx="245.0" cy="150.0" fill="#3763AF" r="20.3994" stroke="black" stroke-width="3.6" /><rect fill="#F58220" height="36.0" stroke="black" stroke-width="3.6" transform="rotate(60,232.2724133595217,102.5)" width="36.0" x="214.2724133595217" y="84.5" /><circle cx="197.5" cy="67.72758664047834" fill="#00A995" r="20.3994" stroke="black" stroke-width="3.6" /><rect fill="#DA1E48" height="36.0" stroke="black" stroke-width="3.6" transform="rotate(0,150.0,55.0)" width="36.0" x="132.0" y="37.0" /></g></svg>