<?xml version="1.0" encoding="UTF-8"?>
<svg id="arrow" xmlns="http://www.w3.org/2000/svg" version="1.1" viewBox="0 0 56.66 121.29">
  <!-- Generator: Adobe Illustrator 29.1.0, SVG Export Plug-In . SVG Version: 2.1.0 Build 142)  -->
  <defs>
    <style>
      .st0 {
        fill: #202020;
      }
    </style>
  </defs>
  <g id="arrow1" data-name="arrow">
    <g>
      <path class="st0" d="M50.74,87.99c-.15-.26-.54-.82-.5-.69l.62.98-.12-.29Z"/>
      <path class="st0" d="M49.3,86.39c.27.5.79,1.34,1.42,2.2-.57-.95-.34-.57-1.02-1.7-.04-.14.27.26.51.62-.15-.26.2.17-.19-.45-.55-.71-.63-.69-.28-.04-.16-.2-.32-.46-.43-.64Z"/>
      <path class="st0" d="M44.53,87.88l.11.08c-.06-.05-.09-.08-.11-.08Z"/>
      <path class="st0" d="M41.95,89.4s-.08-.12-.15-.2c.04.07.07.13.15.2Z"/>
      <path class="st0" d="M40.7,88.84s.05.02.08.04c-.08-.07-.13-.1-.08-.04Z"/>
      <path class="st0" d="M44.53,87.88l-.3-.22c.25.29.22.18.3.22Z"/>
      <path class="st0" d="M50.42,89.02c-.02-.05-.08-.15-.15-.27.02.05.04.09.04.12.04.05.07.1.1.15Z"/>
      <path class="st0" d="M44.9,86.32l.02-.02c-.08-.1-.18-.23-.29-.37l.27.39Z"/>
      <path class="st0" d="M45.58,85.53s.57.75.83,1.09c-.24-.32-.35-.48-.38-.56-.12-.14-.26-.32-.45-.54Z"/>
      <path class="st0" d="M47.9,85.92l-.06-.12s.04.08.06.12Z"/>
      <path class="st0" d="M44.22,86.63c-.1-.11-.18-.2-.24-.26.08.09.16.18.24.26Z"/>
      <path class="st0" d="M34.58,110.98c-.07-.01-.11-.02-.17-.04.1.02.17.04.17.04Z"/>
      <path class="st0" d="M29.62,111.11l-.05-.02c-.19-.02-.37-.03-.55-.05l.6.07Z"/>
      <path class="st0" d="M39.14,88.59s0,0,.02.01c-.06-.1-.06-.07-.02-.01Z"/>
      <path class="st0" d="M33.89,95.46c.74.48.78.84,1.62,1.34-.31-.23-1.1-1.07-1.62-1.34Z"/>
      <path class="st0" d="M50.33,88.93s0,.03-.02.03c.03.02.04,0,.02-.03Z"/>
      <path class="st0" d="M35.52,96.8h0s.08.05.08.05c-.04-.02-.06-.03-.09-.05Z"/>
      <path class="st0" d="M38.06,90.55c.13.11.23.2.33.28-.07-.07-.17-.15-.33-.28Z"/>
      <path class="st0" d="M40.17,90.39l-.12-.06c.07.05.11.06.12.06Z"/>
      <path class="st0" d="M38.49,92.11c-.07-.04-.17-.12-.1-.01.04.03.07.05.09.08-.09-.1-.13-.15,0-.06Z"/>
      <path class="st0" d="M37.92,92.74c.06.05.1.08.16.12l-.02-.06-.14-.07Z"/>
      <path class="st0" d="M34.66,109.24c-.26-.1-.55-.21-.83-.31.65.26.84.44.83.31Z"/>
      <path class="st0" d="M50.1,88.57c.14.2.21.31.23.36,0-.01,0-.03-.01-.06-.09-.12-.17-.23-.22-.3Z"/>
      <path class="st0" d="M44.14,97.44h-.19c.09.03.16.03.19,0Z"/>
      <path class="st0" d="M37.04,104.72l.08.09s0-.02-.08-.09Z"/>
      <path class="st0" d="M43.81,97.8c-.27-.22-.43-.34-.55-.41.05.06.1.1.18.18l.37.23Z"/>
      <path class="st0" d="M33.82,108.92h0s0,0,0,0Z"/>
      <path class="st0" d="M35.77,110.35c.05-.06-1.18-.46-1.87-.73-.31-.23.91.28,1.54.48-.3-.17-1.41-.64-1.33-.68.2.07.28.09.52.2-.92-.45.05-.23-1.11-.81.11.04.21.08.3.11-.6-.24-1.21-.49-1.65-.66,0-.05-.71-.4.07-.1-.04.02.28.15.52.27l-.32-.19c1.14.43.36.23,1.19.57-.33-.24-1.2-.75-.85-.68,1.1.46.29.32,1.31.65l-.46-.07c1.76.65-.15,0,1.73.72.37.01-.49-.38-.12-.37-.59-.3-.9-.39-1.49-.69-.99-.7,2.78,1.09,1.41.3-.7-.37-2.05-1.03-1.29-.79l1.2.62c.17-.07-1.71-.92-.83-.66.46.26.35.3.5.35.99.38-.66-.4-.62-.47l1.07.52c-.09-.22-.77-.77-.88-1.03.31.17.62.37.97.51-.42-.47.36-.35,1.07-.19l-.86-.57s.42.2.58.31c.38.12-.57-.32-.9-.56-.04-.08.54.24.8.42-.7-.56-1.41-1.32-.37-.9l.25.18c.42.11-1.73-1.2-.84-.81l.14.11c.53,0-.11-.77,1.32-.12-1.23-.83.7.13-1.03-1.01.94.42,1.23.66,1.92.85.11,0-1.02-.78-1.16-.96l.9.6-.88-.71,1.1.67-.19-.21c-.07-.01-.44-.22-.69-.4-.34-.36.78.2,1.23.51l-.61-.73c.35.25.45.37.66.55-.83-.73.95.62.19-.05-.21-.13-.52-.37-.7-.5.57.32.66.21.49-.04l.6.44c.26-.04-.07-.53.06-.7-.32-.14-1.36-.9-1.43-1.03l.94.65c-.55-.45-.39-.2-1.04-.77.15,0,1.08.71,1.36.97l-.27-.31c.28.19.41.32.76.58-.55-.45,1.03.54.06-.23l.28.2c.14-.16-.12-.47-.06-.65-.79-.59-.57-.51-1.18-1.03.33.08,1.04.43,1.06.26-.32-.38-.64-.53-1.08-.92.72.54.75.36,1.21.82,0-.24,0-.3-.43-.94-.31-.2-.45-.28-.68-.48-.09-.13.36.15.69.42l.07.07c-.9-1.05,2.44,1.13,1.11-.2l.06.07-.62-.78c.19.02.49.47.97.76-1.01-1.13.41-.16-.24-.94,2.14,1.56.2-.54,1.63.38l-.49-.39c-.43-.43.31.18.45.24-.37-.31-.47-.31-.7-.56-.28-.83,1.31-.12,2.03-.1.23-.02-2.36-2.19-1.1-1.38l.83.81c-.82-1.18.49-.49-.16-1.52.18.19.44.43.42.45.67.51.21-.17-.3-.63.09.01.47.41.75.62.41.28-.67-.85-.03-.32.1.09.19.2.23.25-.27-.31.22-.09-.52-.71.43.22-.15-.47.34-.16-.75-.78.53.19-.58-.86,1.15,1.08,1.08.71.6.14.33.35.41.29.87.76.04-.08-.11-.34-.72-.89,1.49,1.18-.87-1.29.96.31-.43-.78-.67-1.36-.76-1.8,1.13,1.1-.08.31,1.12,1.45-.31-.62-1.19-1.66-.75-1.56.2.11.47.5.65.71-.3-.62.41-.22-.05-.97.1.1.2.23.27.33,0-.07.23.1-.28-.41l.11.17c-.79-.69-1.43-1.65-1.81-2.05,1.41,1.5.52.22,2.27,2.13-.08-.11-.29-.38-.64-.71.13.07.33.26.69.67-.17-.38-.75-.88-.64-.96.24.25.32.36.6.66-.43-.53-.86-1.06-.57-.93.14.15.34.34.32.36.06-.21-1.03-1.52-.41-1.2,1.01,1.13.4.31,1.32,1.23l-.19-.36-.47-.42c.09-.05-.51-.8-.15-.55l.32.44-.04-.31-.42-.28c-.39-.56-1.15-1.18-.8-1.02.07.12.09-.06.66.46h0c-.25-.33-.52-.69-.24-.51.3.29.98,1.06,1.18,1.25-.72-.83-.04-.38-.79-1.27.17.21.64.71.74.81l-.58-.67c.23.17.33.27.7.67.21.02-1.17-1.18-.56-.77.04.06.14.15.21.27.38.16-.14-.63.27-.42.93.94.12.33.91,1.11,0-.32-.73-1.47-.36-1.39l-.13-.08c-1.22-1.4.73.57.23-.15.07.12.66.79.53.63.31.12-.09-.54-.31-1.13l.3.37c.35.26.33.04.55.14-.29-.38-.2-.35-.68-.85,2,1.86-.53-1.47,1.14.09-.02.02.22.37.24.35l-.12-.48c-.53-.61-.34-.36-.78-.81-.29-.38-.48-.71-.44-.75.27.48.84.99,1.16,1.31-.16-.19-.33-.4-.49-.6,1.01,1.03-1.03-1.26-.29-.62l.27.33c-.09-.2-.41-.67-.28-.62.62.71.23.38.72.97.03-.1-.99-1.48-.33-.81.14.23.1.26.23.49.77.79.6.57.76.67l-.02-.02.43.3-.22-.21c-1.45-1.96-.11-.48-.99-1.82.83,1.27.53.7,1.18,1.53.21.21.46.43.63.67-.48-.71.5.46-.2-.58.21.27.08-.02.59.67-.1-.27-.38-.46-.64-.8-.61-1.01,1.11.92.29-.47-.27-.63-.93-1.56-1.13-2.12.37.41.7,1.03.7,1.03.37.35.37.24.2-.12.16.25.32.44.57.74,0-.11-.69-1.03-.33-.67.21.32.55.82.75,1.15-.12-.3-.43-.86-.55-1.16.36.47.48.76.69,1.1-.09-.27-.13-.57-.65-1.36l-.24-.24c0-.06.48.65.56.81.36.65-.28-.2-.48-.48l-.08-.21c-1.2-1.6,0,.4-.16.37l-.81-1.21.61,1.05c-.24-.29-.74-.94-.82-1.15-.5-.53.24.46-.29-.14-.08-.1-.12-.15-.15-.21l.19.4c-.17-.26-.62-.82-.45-.68-.63-.58.45,1.02-.26.18l-.04-.08c.13.53.63.87,1.27,1.96l-1.69-2.03.63.86s-.12-.05-.38-.4c.38.63.29.36.68.94-.68-.7.05.54-1.01-.79.47.66.47.43.73.94-1.16-1.42.09.33-.5-.27-.57-.76-.18-.43-.78-1.02.95,1.29-.37-.15-.25.14.8.99.19.53.35.94-.26-.34-.65-.38-1.04-.64l-.13-.17c.8,1,.55.9.65,1.17-.49-.59-.67-.83-.86-1.13l-.07.06c.25.33.37.51.42.67l-.6-.75c-.06.12.54,1.02,0,.64.58.69,1.71,1.82,1.98,2.38-.32-.36-.86-.99-.96-1.17.03.06.22.34.07.2l-.48-.66c-.29-.23.42.54.32.52-.45-.52-.35-.35-.71-.77-.03-.06.22.18.06-.04-.13-.05-.46-.31-.82-.69.26.29.61.7.63.8-.06.12-.58-.6-.86-.82.29.38-.09.06.58.84-.03.02-.35-.34-.55-.54.25.38-.14.29.64,1.07l.06.04s.01.02.02.04h0s0,0,0,0c.53.9-.71-.16-.56.31l-.23-.26c.17.38-.04.36.39.96-.03.02-.49-.41-.75-.72.11.26.36.55-.12.22-.34-.51-.38-.37-.23-.39-.29-.14-.69-.53-.14.26-.57-.68-.82-.76-.69-.52l.49.41c.04.14-.06.12-.15.1l-.77-.87c-1.16-.86,1.31,2.07-.45.47.51.64.49.32,1.1,1.06-.1-.02-.45-.31-.79-.6-.34-.28-.65-.56-.67-.55-.56-.36,1.07,1.33.65,1.13.3.28,1.08,1.07,1.27,1.44-.19-.03-1.31-1.16-1.49-1.45,0-.04.1.04.19.14-.08-.13-.17-.3-.51-.59l.28.31c-.33-.27-.42-.12-.86-.64.21.35.45.52.64.63-.52-.33-.18.15-.57-.04.18.15.53.48.51.5-.52-.21.48.63.5.87-.5-.39-1.04-1.1-.77-.62-.37-.24-.79-.77-1-1.04.46.67-.56-.19-.72-.24l-.18-.29c.11.17.08.19.05.22l.61.56c-.13-.07-.16-.05-.4-.3.35.42,1,.96,1.46,1.55-.34-.26.2.44-.6-.33.39.14-.8-.77-.81-1,.07.11.04.14-.09.06-.09-.08-.16-.17-.19-.22-.82-.57.82.94.68,1.05-.42-.45-.86-.8-.79-.69.06-.04.76.71,1.05,1.09-.42-.26.17.34.09.35l.21.11c.42.45.33.44.41.63-.35-.34-.19-.29-.36-.42.72.83-.94-.65-.5-.05-.34-.25-.84-.81-1.08-.98.48.66-.71-.49-.34.08.63.55.49.4,1,1.05l-.25-.58.76.96c.06-.04-.27-.48-.14-.41.44.53.29.38.81.84-.96-.81.39.65-.29.14l-1.48-1.44c-.78-.52.55.96.02.76l.31.2c.57.59-.01.18.18.46-.49-.48-.71-.62-1.04-.9.37.35-.15.09.84,1.05l-.73-.56c-.4-.13,1.29,1.5,1,1.46-.51-.55-.92-.83-1.23-1.28-.04.04-.17-.01.18.32-.34-.27.57.75.06.34.21.23.73.73.64.73-.11-.09-.25-.23-.25-.23.25.23.27.39.87.87-1.7-1.34-.21.46-1.68-.68.09.25.15.51.11.63-.15-.14-.25-.23-.19-.2-.58-.32,1.4,1.4.75,1.05-.89-.68-.38-.47-.74-.72-1.7-1.51.09.37-.98-.43l-.08-.11c-.64-.45.49.74.27.74,0,0-.15-.14-.26-.23.8.85.96,1.25,1.11,1.57-.64-.62-.31-.36-1.01-.94.05.13,1.1.95,1.21,1.21-.39-.29-.77-.5-1.51-1.13l.04-.13c-.98-.78-.07.15-.28.05l-.41-.37c0,.26,1.05,1.16.84,1.25l.33.26c.96.97-.64-.43.06.31l-1.07-.88c.2.27.85,1.06.96,1.33-.73-.72-1.03-1.18-1.43-1.64-.05.05-.08.25.41.72-.08-.11-.32-.36-.14-.24.77.77,1.1,1.21.99,1.3-2.03-1.75-.76-.16-2.42-1.42.6.83-.65.12-.72.46,1.68,1.24,0,.11,1.66,1.45.06.14.02.14-.09.05l-1.12-.65c-.52-.35-.32-.35-.7-.65-.22.02-.74-.52-1.25-.8.61.47.82.73.53.62l.85.52c.75.88-1.52-.98-.77-.11l-.48-.48c.24.34-.27.32,1.01,1.47-.21-.14-.68-.48-.77-.62-.38.05,1.07,1.59.11,1.11l-.4-.34c.09.13.73.67.27.4-.17-.13-.4-.33-.44-.33.13.13.65.66.37.53l-.43-.4c-.7-.21.9,1.19,1.06,1.57-1.23-.93-1.76-1.06-2.02-1.13l-.17-.13c-.34.13.71,1.18,1.04,1.75-1.46-.84-.91.08-1.84-.23.25.12.98.7,1.08.83-.29-.12.77.76-.38-.06h.04c-1.17-.75-.94-.43-1.04-.36l1.51,1.06c-2.38-1.28.41,1.15-1.68-.07.35.31.29.38.64.69l-.83-.55c-.31.02-.47.04-.4.37l-.57-.42c-.13.08,2.32,1.68,2.31,1.81l-1.27-.76c-.1.21-1.33-.27-.31.62-.18-.12-.54-.34-.58-.41-.09.07-1.09-.15.68.86-1.14-.68-.24.14.2.54l-.83-.51c1.02.72,1.31.89,1.54,1.19-.13-.03-.69-.36-.45-.28-.5-.15.76.54.24.4l-.52-.35c-.12.07.17.23.77.64.31.26-.32.07-1.1-.34.46.27,1.06.68.81.62-.3-.15-.47-.27-.55-.33-.68-.14.86.8-.05.46-.29-.15-.43-.22-.53-.25.1-.13.2-.22.26-.17-.79-.43-.99-.38-2.04-1.07.54.42,1.76,1.27,1.32,1.18-.08-.04-.16-.07-.28-.13l-.08-.06c-.09-.02-.03.05.09.14-.15-.03-.26-.06-.29-.03-.67-.33-.43-.05-.49,0,.88.44.7.44,1.46.74-.07-.02-.1-.06-.12-.12-.02-.02-.03-.04-.08-.07l.07.04s0-.11.02-.17c.42.27.77.51.25.32.55.32,1.11.64,1.37.8-1.26-.55-2.01-.73-2.78-1.08.41.43.12.62,1.75,1.51.19.15-.51-.16-.78-.27-.16-.11-.11-.13-.35-.26.38.3.03.39,1.2.94-.59-.11-1.05-.56-.94-.29l-.35-.18c-1.03-.23-.34.25.29.69.63.44,1.2.82-.12.54.16.03.24.04.44.12-.63.02-.45.38-.35.68.1.31.13.56-.84.55-.4.04.39.27.97.51l-1.03-.24,1.14.44c.84.38-2.6-.18-1,.45l.71.09c-.15.07.36.37-.44.22.13.03.73.15.35.13l-.55-.08c.3.13.6.25.9.37-.43.14-2.17-.31-2.33,0,.19.15,1.56.46,1.93.45.03-.04.36-.07.91-.03l.27.1c1.62.15,3.28.29,4.44.29l-.97-.18.79.06.04.06c.75.04.1-.04-.35-.12.42.04.71.07.87.08l-1.53-.28c.63.08,1.25.2,1.6.21-.71-.14-1.42-.17-1.88-.3.74.07,1.33.18.72.03.42.06.68.11.86.16-.49-.12-.19-.12-1.04-.3.9.13-.21-.19,1.3.13-.36-.08-1.18-.32-1.23-.37,1.79.48.12-.1,2.05.39-1.59-.46-.65-.37-1.5-.72.12.04.38.13.29.11.15-.02.64.11.95.17-1.31-.4-1.58-.58-2.37-.89,1.28.33,1.52.53,2.74.89-1.06-.33-1.02-.45-1.91-.71.8.2.39.08,1.48.41-1.62-.55-.26-.14-1.24-.52.82.2,1.52.51,1.06.26.5.14,1.06.41,1.06.41ZM34.02,107.05s.02,0,.02,0c0,.03.02.06.02.07,0-.02-.02-.04-.04-.08ZM34.11,106.84s-.07.03-.08.07c-.3-.15-.61-.32-.58-.34.19.12.39.16.66.27ZM27.82,104.15c-.1-.1.08-.03.26.06,0,.03.02.06.07.12.03.02.07.04.1.06-.16-.09-.32-.18-.43-.24Z"/>
      <path class="st0" d="M28.93,104.8s.05.04.06.05c.08.03.15.06.21.08-.09-.05-.18-.1-.27-.15v.03Z"/>
      <path class="st0" d="M44.66,87.98h-.02s.06.04.1.08c-.03-.03-.05-.06-.08-.08Z"/>
      <polygon class="st0" points="37.3 105.19 37.09 105.06 37.26 105.19 37.3 105.19"/>
      <path class="st0" d="M47.88,89.66c.06.06.12.13.17.18-.04-.04-.1-.11-.17-.18Z"/>
      <path class="st0" d="M48.45,89.47l.28.22c-.15-.13-.23-.19-.28-.22Z"/>
      <path class="st0" d="M49.09,89.59c-.11-.14-.18-.24-.26-.33h0s.26.33.26.33Z"/>
      <path class="st0" d="M44.86,95s0,.02.02.04c.11.16.07.09-.02-.04Z"/>
      <path class="st0" d="M44.72,91.92c.11.14.21.29.27.38.08.03.11.02-.27-.38Z"/>
      <path class="st0" d="M44.16,97.44h-.01s0,0,0,0h.02Z"/>
      <path class="st0" d="M44.91,92.36c.16.12.15.06.08-.05-.07-.03-.16-.07-.08.05Z"/>
      <path class="st0" d="M50.76,88.89l.04.02c-.04-.05-.07-.1-.09-.13l.05.11Z"/>
      <path class="st0" d="M50.71,88.78l-.05-.11s-.01.02.05.11Z"/>
      <path class="st0" d="M50.56,88.44l.1.23s.05,0-.1-.23Z"/>
      <path class="st0" d="M50.07,88.82l.21.29c-.04-.06-.11-.16-.21-.29Z"/>
      <path class="st0" d="M50,89c.08.04.53.56.44.35l-.16-.23c.3.44-.6-.62-.28-.11Z"/>
      <path class="st0" d="M46.74,85.95l.3.13c-.25-.28-.6-.66-.6-.78-.85-.77.55.65.3.65Z"/>
      <path class="st0" d="M46.01,85.82c-.04-.19-.35-.43-.48-.6.17.3.22.38.48.6Z"/>
      <path class="st0" d="M43.33,88.12l-.6-.67c.04.14.23.26.6.67Z"/>
      <polygon class="st0" points="45.99 91.97 46.41 92.33 45.87 91.71 45.99 91.97"/>
      <polygon class="st0" points="41.35 87.57 41.28 87.46 41.42 87.77 41.35 87.57"/>
      <path class="st0" d="M37.39,92.04l.82.73c-.12-.17-1.02-1.01-.82-.73Z"/>
      <path class="st0" d="M36.52,94.69c-.43-.34-.75-.52-.37-.13.1,0,.46.24.37.13Z"/>
      <polygon class="st0" points="30.33 99.72 30.06 99.46 30.26 99.72 30.33 99.72"/>
    </g>
    <g>
      <path class="st0" d="M29.34,115.08c.28-.12.89-.43.74-.41l-1.05.48.31-.07Z"/>
      <path class="st0" d="M31.1,113.81c-.53.2-1.44.59-2.37,1.12,1.01-.44.62-.27,1.82-.78.15-.02-.29.25-.67.43.27-.12-.19.18.47-.12.77-.46.76-.56.06-.3.22-.13.5-.26.69-.35Z"/>
      <path class="st0" d="M29.8,108.3l-.09.11c.06-.05.08-.09.09-.11Z"/>
      <path class="st0" d="M28.33,105.22s.14-.06.22-.12c-.07.03-.14.05-.22.12Z"/>
      <path class="st0" d="M29,103.99s-.03.05-.04.07c.08-.08.12-.12.04-.07Z"/>
      <path class="st0" d="M29.8,108.3l.25-.28c-.31.21-.2.2-.25.28Z"/>
      <path class="st0" d="M28.31,114.53c.06-.01.16-.05.29-.11-.05.01-.09.02-.13.02-.05.03-.1.06-.16.09Z"/>
      <path class="st0" d="M31.41,109.02l.02.02c.11-.07.25-.15.41-.24l-.42.22Z"/>
      <path class="st0" d="M32.2,109.9s-.81.47-1.18.69c.35-.2.52-.29.6-.31.16-.1.34-.23.58-.38Z"/>
      <path class="st0" d="M31.67,112.37l.13-.04s-.08.02-.13.04Z"/>
      <path class="st0" d="M31.12,108.21c.12-.09.22-.16.28-.21-.1.07-.19.14-.28.21Z"/>
      <path class="st0" d="M5.23,90.49c.04-.06.07-.09.11-.14-.06.08-.11.13-.11.14Z"/>
      <path class="st0" d="M7.15,85.84l.04-.03c.11-.15.21-.3.31-.45l-.36.48Z"/>
      <path class="st0" d="M29.35,102.38s0,0-.01.02c.11-.05.08-.05.01-.02Z"/>
      <path class="st0" d="M22.57,95.4c-.59.67-.96.62-1.58,1.39.28-.27,1.25-.91,1.58-1.39Z"/>
      <path class="st0" d="M28.41,114.44s-.03-.01-.03-.03c-.02.03-.01.04.03.03Z"/>
      <path class="st0" d="M20.99,96.79h0s-.06.08-.06.08c.03-.03.04-.05.06-.08Z"/>
      <path class="st0" d="M27.36,100.83c-.13.12-.22.2-.32.29.08-.06.17-.15.32-.29Z"/>
      <path class="st0" d="M27.4,103.12l.08-.12c-.06.07-.07.1-.08.12Z"/>
      <path class="st0" d="M25.69,100.98c.04-.07.14-.16.02-.1-.04.03-.06.06-.09.08.11-.08.17-.1.07.02Z"/>
      <path class="st0" d="M25.07,100.24c-.05.05-.09.09-.14.14h.06s.08-.14.08-.14Z"/>
      <path class="st0" d="M7.52,91.77c.18-.22.37-.46.55-.69-.45.53-.71.63-.55.69Z"/>
      <path class="st0" d="M28.79,114.26c-.22.12-.33.17-.38.18.01,0,.04,0,.06,0,.13-.07.25-.13.32-.18Z"/>
      <path class="st0" d="M19.67,105.87l.02-.2c-.05.09-.05.16-.02.2Z"/>
      <path class="st0" d="M12.3,96.19l-.11.06s.02.01.11-.06Z"/>
      <path class="st0" d="M19.3,105.43c.25-.24.39-.39.47-.5-.06.05-.12.08-.21.15l-.27.35Z"/>
      <path class="st0" d="M8.08,91.08h0s0,0,0,0Z"/>
      <path class="st0" d="M5.86,92.25c.08.1.87-.93,1.37-1.47.36-.18-.56.77-.95,1.3.29-.2,1.13-1.05,1.15-.96-.14.16-.18.23-.36.42.75-.7.27.17,1.21-.71-.07.09-.14.18-.2.25.41-.5.85-1,1.16-1.34.06.03.63-.53.09.12-.01-.04-.24.21-.43.39l.29-.23c-.76.95-.34.25-.94.93.35-.21,1.13-.86.98-.54-.78.9-.43.15-1.04,1.02l.19-.44c-1.16,1.48.02-.16-1.23,1.41-.09.38.56-.31.47.08.47-.46.64-.74,1.12-1.2,1.01-.69-1.85,2.36-.63,1.32.57-.55,1.6-1.65,1.17-.96l-.95.96c.05.22,1.39-1.35.92-.55-.39.36-.41.23-.5.36-.63.86.59-.5.66-.43l-.8.89c.27,0,1.02-.47,1.34-.47-.25.25-.54.49-.75.79.61-.24.34.52.04,1.22l.79-.67s-.29.36-.45.49c-.19.35.46-.46.77-.72.09,0-.35.48-.6.67.74-.5,1.7-.97,1.07-.04l-.24.19c-.18.41,1.6-1.37,1.03-.59l-.15.11c-.07.56.86.16-.06,1.44,1.09-1.01-.23.7,1.25-.73-.59.86-.89,1.08-1.19,1.75-.02.12,1-.83,1.21-.91l-.77.75.9-.7-.88.95.26-.13c.02-.07.3-.39.52-.6.44-.24-.32.76-.71,1.14l.87-.41c-.32.3-.46.36-.69.52.91-.64-.8.81.03.22.16-.18.47-.44.63-.59-.42.51-.3.64-.02.54l-.55.5c.02.3.59.1.76.3.19-.3,1.14-1.18,1.28-1.21l-.81.81c.55-.45.26-.35.96-.87-.03.16-.9.94-1.21,1.15l.37-.19c-.24.24-.39.34-.71.63.55-.45-.69.93.25.14l-.24.24c.17.2.53.02.72.13.72-.67.62-.46,1.25-.95-.12.33-.57.98-.39,1.06.45-.23.64-.54,1.11-.89-.65.61-.46.7-1,1.06.26.07.33.09,1.06-.19.25-.27.34-.4.58-.6.14-.06-.2.34-.52.63l-.08.05c1.22-.67-1.44,2.3.12,1.24l-.08.05.9-.45c-.03.19-.55.4-.9.83,1.3-.78.14.48,1.04,0-1.86,1.89.57.36-.53,1.66l.46-.42c.5-.35-.22.29-.29.42.36-.32.38-.42.66-.61.92-.09.04,1.44-.03,2.22,0,.26,2.52-2.01,1.56-.85l-.93.7c1.32-.59.51.66,1.66.2-.22.15-.49.38-.51.34-.59.6.17.26.69-.17-.02.1-.47.41-.71.66-.33.38.96-.52.34.04-.1.09-.22.16-.28.19.35-.22.08.26.79-.4-.26.41.51-.05.15.4.88-.63-.24.53.96-.43-1.23,1-.82,1.01-.18.61-.39.28-.33.38-.87.77.09.07.38-.04.99-.57-1.34,1.35,1.44-.65-.38.96.86-.29,1.49-.42,1.96-.42-1.24.98-.32-.15-1.61.9.68-.2,1.83-.92,1.71-.47-.13.19-.56.4-.79.54.68-.19.22.5,1.04.16-.12.09-.26.17-.37.22.07,0-.11.23.45-.22l-.18.08c.77-.7,1.83-1.19,2.27-1.52-1.67,1.2-.26.51-2.38,2.01.13-.06.42-.24.79-.54-.08.12-.29.31-.75.6.41-.11.98-.62,1.06-.49-.28.21-.4.27-.73.51.58-.35,1.17-.71,1.01-.42-.17.12-.38.3-.4.27.22.11,1.66-.79,1.3-.2-1.24.86-.34.37-1.38,1.17l.39-.13.47-.43c.05.11.87-.39.59-.05l-.48.26.33.02.32-.4c.61-.31,1.31-1.01,1.12-.66-.13.05.06.1-.52.62h0c.37-.2.76-.42.55-.15-.32.27-1.17.85-1.38,1.03.91-.61.41.04,1.39-.6-.23.14-.78.55-.89.64l.74-.49c-.2.21-.3.3-.75.62-.04.23,1.3-1.03.84-.45-.07.03-.17.12-.3.17-.19.38.67-.03.43.38-1.03.82-.35.06-1.21.77.34.06,1.59-.5,1.48-.11l.09-.12c1.53-1.05-.64.69.15.28-.13.05-.86.56-.69.45-.14.31.57.02,1.21-.11l-.41.25c-.29.33-.05.36-.17.57.41-.25.38-.15.93-.58-2.05,1.81,1.56-.29-.14,1.23-.02-.03-.39.16-.38.19l.51-.04c.66-.46.39-.3.88-.69.42-.24.77-.38.8-.33-.51.2-1.08.72-1.43,1.01.21-.14.44-.28.65-.42-1.13.9,1.37-.88.66-.19l-.36.23c.22-.06.73-.32.67-.19-.77.54-.41.18-1.05.6.1.05,1.6-.8.87-.21-.24.1-.28.05-.52.16-.87.68-.63.54-.74.7l.02-.02-.33.41.23-.2c2.12-1.2.51-.02,1.95-.72-1.37.66-.76.44-1.66.99-.23.19-.47.42-.74.56.77-.38-.51.46.62-.1-.29.18.02.09-.73.52.28-.05.49-.33.86-.55,1.08-.47-1.02,1.04.47.41.67-.17,1.68-.71,2.27-.83-.44.33-1.11.57-1.11.57-.39.34-.28.35.11.25-.27.13-.48.27-.8.48.11.02,1.11-.56.72-.23-.34.17-.89.44-1.24.59.31-.08.91-.31,1.23-.37-.51.3-.82.38-1.18.54.28-.04.6-.03,1.45-.44l.27-.21c.06.01-.71.39-.87.45-.69.27.23-.26.53-.43l.22-.04c1.73-1-.41-.09-.37-.25l1.3-.65-1.12.46c.32-.21,1.02-.63,1.24-.67.58-.44-.49.17.16-.3.1-.07.17-.1.22-.12l-.43.13c.28-.13.88-.52.73-.37.64-.58-1.09.29-.17-.32l.09-.03c-.55.04-.94.52-2.11,1l2.2-1.45-.93.53s.06-.13.43-.34c-.68.3-.39.25-1.01.56.77-.61-.56-.05.87-.96-.71.39-.47.43-1.02.61,1.54-.99-.35.04.31-.5.82-.47.45-.11,1.11-.66-1.39.79.18-.38-.13-.3-1.08.68-.56.11-1,.2.37-.23.42-.63.72-1.01l.18-.11c-1.09.68-.97.42-1.26.48.64-.42.91-.57,1.23-.71l-.06-.08c-.36.21-.56.3-.72.33l.81-.51c-.12-.09-1.1.39-.67-.11-.75.5-1.99,1.51-2.59,1.7.4-.28,1.08-.75,1.27-.82-.06.02-.37.18-.21.04l.72-.4c.25-.27-.59.35-.56.25.57-.39.38-.32.84-.62.06-.02-.2.21.03.08.06-.13.35-.44.76-.76-.32.23-.77.52-.87.53-.12-.09.66-.51.91-.78-.41.24-.06-.11-.91.47-.02-.04.37-.32.59-.49-.42.2-.3-.21-1.15.49l-.05.06s-.02,0-.04.02h0s0,0,0,0c-.97.4.2-.73-.3-.67l.28-.2c-.4.12-.37-.12-1.03.24-.02-.03.46-.45.8-.67-.27.06-.59.28-.22-.18.55-.27.41-.34.42-.17.16-.29.59-.64-.26-.21.75-.48.84-.74.59-.64l-.45.45c-.15.02-.12-.08-.1-.18l.96-.66c.97-1.08-2.24,1.01-.47-.57-.7.43-.37.47-1.17.98.05-.2,1.3-1.31,1.28-1.34.41-.53-1.46.89-1.22.47-.32.27-1.19.95-1.58,1.08.04-.19,1.29-1.18,1.61-1.31.05,0-.05.1-.16.18.15-.06.32-.12.65-.43l-.34.24c.3-.31.15-.42.72-.8-.38.16-.57.38-.7.57.38-.5-.15-.22.07-.6-.17.16-.54.48-.55.45.25-.51-.69.39-.94.36.44-.46,1.22-.89.69-.71.28-.35.86-.69,1.15-.86-.73.36.24-.56.3-.72l.32-.14c-.19.08-.21.04-.23.01l-.63.55c.08-.13.06-.16.34-.37-.46.29-1.07.88-1.72,1.25.29-.31-.48.12.38-.57-.17.39.86-.7,1.11-.67-.12.05-.15.02-.06-.11.09-.08.18-.13.24-.16.66-.76-1.04.69-1.15.52.51-.36.9-.76.77-.71.04.07-.79.67-1.21.9.3-.4-.37.11-.37.02l-.13.2c-.5.36-.48.26-.69.31.38-.31.31-.14.46-.3-.92.6.75-.88.08-.53.29-.31.91-.73,1.1-.95-.73.38.56-.66-.07-.38-.62.56-.46.44-1.17.85l.63-.15-1.06.62c.04.07.52-.19.44-.07-.58.36-.42.24-.94.7.91-.87-.71.28-.13-.34l1.62-1.29c.6-.73-1.04.39-.8-.13l-.23.29c-.66.49-.19-.05-.5.1.54-.43.71-.63,1.02-.92-.4.33-.08-.18-1.17.68l.64-.66c.16-.39-1.67,1.06-1.62.77.62-.43.94-.81,1.44-1.05-.04-.05.02-.18-.35.12.31-.3-.84.45-.37-.01-.25.17-.82.62-.82.53.1-.1.26-.22.26-.22-.26.22-.43.21-.98.74,1.54-1.52-.48-.33.84-1.64-.27.04-.55.05-.67-.02.16-.13.26-.22.23-.16.38-.55-1.59,1.19-1.17.57.79-.8.53-.31.81-.63,1.72-1.48-.39.01.54-.95l.12-.06c.52-.58-.82.36-.81.13,0,0,.16-.12.26-.22-.96.66-1.4.74-1.75.83.71-.54.41-.25,1.07-.86-.15.03-1.09.96-1.38,1.01.34-.35.6-.71,1.32-1.34l.13.07c.9-.86-.15-.11-.03-.3l.42-.35c-.27-.05-1.32.85-1.39.61l-.3.29c-1.11.79.51-.58-.33-.01l1.02-.93c-.31.16-1.2.66-1.49.72.83-.61,1.34-.82,1.87-1.14-.05-.07-.26-.14-.8.27.12-.06.4-.25.27-.09-.89.64-1.37.89-1.46.75,2.04-1.74.24-.76,1.72-2.22-.94.44-.06-.71-.41-.85-1.48,1.47-.11-.03-1.7,1.4-.15.03-.15-.01-.05-.11l.8-1.03c.43-.46.4-.26.76-.58,0-.24.63-.66.98-1.12-.56.53-.86.69-.71.42l-.64.76c-1.01.58,1.2-1.35.2-.78l.55-.39c-.38.17-.3-.35-1.65.71.17-.18.58-.6.73-.66,0-.4-1.8.74-1.17-.14l.4-.34c-.15.06-.79.59-.45.19.16-.14.4-.34.41-.38-.15.1-.78.51-.6.25l.48-.35c.31-.68-1.36.64-1.78.71,1.13-1.05,1.34-1.55,1.45-1.81l.16-.15c-.09-.38-1.32.45-1.98.64,1.08-1.29.05-.96.52-1.83-.17.23-.87.82-1.02.89.17-.27-.91.59.12-.38v.04c.96-1,.59-.85.54-.96l-1.35,1.27c1.72-2.09-1.26.11.35-1.69-.38.27-.44.2-.83.47l.71-.69c.03-.32.05-.49-.3-.5l.54-.46c-.06-.15-2.16,1.88-2.29,1.83l1.02-1.07c-.19-.16.54-1.26-.58-.49.16-.15.46-.45.53-.46-.06-.11.38-1.04-1.02.44.93-.94-.09-.28-.6.04l.7-.68c-.95.81-1.2,1.05-1.55,1.19.06-.12.52-.58.38-.37.27-.45-.71.59-.46.12l.47-.41c-.04-.14-.27.1-.82.58-.33.23,0-.35.59-1-.39.38-.93.85-.81.61.22-.25.39-.38.47-.44.3-.63-1.01.6-.46-.2.22-.24.32-.36.38-.44.11.14.17.27.11.31.62-.65.63-.86,1.56-1.68-.55.41-1.7,1.35-1.51.95.06-.07.11-.13.2-.24l.08-.06c.04-.09-.04-.05-.16.05.07-.14.12-.24.1-.28.5-.55.16-.4.13-.48-.67.72-.63.54-1.12,1.2.04-.06.09-.08.15-.08.03-.01.05-.02.09-.05l-.06.06c.05.01.11.04.17.07-.38.33-.71.59-.39.14-.46.43-.93.88-1.15,1.09.87-1.07,1.24-1.74,1.8-2.38-.54.26-.63-.08-1.97,1.2-.2.14.3-.44.48-.67.15-.11.16-.06.36-.25-.41.27-.39-.11-1.28.84.28-.54.86-.83.56-.81l.28-.27c1.05-1.83-2.68,2.02-1.27-.27-.08.14-.12.21-.26.38.35-1.23-1.53.16-.76-1.61.12-.39-.41.25-.87.68l.63-.85-.88.86c-.72.58,1.27-2.29.01-1.12l-.4.59c0-.17-.5.15,0-.5-.09.1-.46.58-.28.25l.32-.45-.75.62c.08-.44,1.3-1.77,1.12-2.03-.22.11-1.17,1.14-1.34,1.47.02.05-.11.35-.42.8l-.24.18c-.94,1.33-1.92,2.68-2.42,3.73l.68-.74-.42.67-.12-.02c-.38.65.03.13.33-.21-.23.35-.39.6-.46.74l1.01-1.19c-.36.53-.78.99-.92,1.33.47-.55.79-1.19,1.15-1.52-.38.64-.76,1.11-.32.65-.24.34-.41.55-.54.68.35-.37.26-.07.81-.74-.5.77.32-.06-.62,1.17.24-.28.83-.89.92-.91-1.22,1.39.11.22-1.13,1.76,1.1-1.25.69-.38,1.39-1-.09.1-.27.29-.23.22-.02.16-.32.57-.47.84.88-1.06,1.18-1.21,1.78-1.81-.76,1.09-1.08,1.2-1.86,2.2.7-.86.85-.74,1.41-1.47-.46.68-.2.35-.9,1.25,1.11-1.31.24-.18.97-.94-.45.72-1.01,1.25-.58.93-.29.44-.77.83-.77.83ZM10.18,92.14s-.01.01-.01.01c-.04,0-.07,0-.09,0,.02,0,.05,0,.1,0ZM10.38,92.32c0-.05-.02-.08-.06-.11.23-.25.47-.5.48-.47-.17.15-.26.34-.42.58ZM14.63,86.95c.13-.07,0,.08-.12.23-.03,0-.07,0-.14.03-.03.03-.06.06-.09.08.13-.13.26-.25.35-.35Z"/>
      <path class="st0" d="M13.69,87.83s-.05.04-.06.04c-.05.07-.09.13-.13.18l.22-.21h-.03Z"/>
      <path class="st0" d="M29.69,108.43v-.02s-.05.05-.09.09c.04-.03.06-.05.09-.07Z"/>
      <polygon class="st0" points="11.74 96.31 11.92 96.13 11.75 96.27 11.74 96.31"/>
      <path class="st0" d="M27.76,111.61c-.07.05-.14.1-.2.15.05-.04.12-.09.2-.15Z"/>
      <path class="st0" d="M27.94,112.27l-.25.27c.15-.14.21-.22.25-.27Z"/>
      <path class="st0" d="M27.78,112.95c.15-.09.26-.15.36-.22h0s-.37.22-.37.22Z"/>
      <path class="st0" d="M22.24,107.22s-.02,0-.05.01c-.18.08-.1.06.05-.01Z"/>
      <path class="st0" d="M25.52,107.71c-.16.09-.31.17-.42.22-.03.08-.03.12.42-.22Z"/>
      <path class="st0" d="M19.66,105.9h.01s0-.02-.01-.02v.02Z"/>
      <path class="st0" d="M25.05,107.83c-.13.15-.08.15.05.1.03-.07.09-.16-.05-.1Z"/>
      <path class="st0" d="M28.42,114.92l-.03.04c.06-.03.1-.05.14-.07l-.12.03Z"/>
      <path class="st0" d="M28.53,114.89l.11-.03s-.02-.01-.11.03Z"/>
      <path class="st0" d="M28.89,114.79l-.24.07s-.01.05.24-.07Z"/>
      <path class="st0" d="M28.53,114.18l-.31.17c.07-.04.17-.09.31-.17Z"/>
      <path class="st0" d="M28.35,114.07c-.05.08-.61.47-.39.42l.25-.13c-.47.24.68-.54.14-.28Z"/>
      <path class="st0" d="M31.7,111.09l-.15.3c.31-.22.72-.52.85-.5.85-.78-.7.48-.7.2Z"/>
      <path class="st0" d="M31.87,110.32c.2,0,.47-.29.65-.4-.33.13-.41.16-.65.4Z"/>
      <path class="st0" d="M29.6,106.96l.73-.52c-.15.01-.28.2-.73.52Z"/>
      <polygon class="st0" points="25.42 109.08 25.01 109.47 25.69 109.01 25.42 109.08"/>
      <polygon class="st0" points="30.29 104.93 30.41 104.88 30.08 104.97 30.29 104.93"/>
      <path class="st0" d="M25.85,99.82l-.83.72c.18-.09,1.15-.87.83-.72Z"/>
      <path class="st0" d="M23.13,98.33c.4-.38.61-.68.17-.36-.02.1-.3.43-.17.36Z"/>
      <polygon class="st0" points="18.61 90.7 18.92 90.48 18.62 90.61 18.61 90.7"/>
    </g>
    <g>
      <path class="st0" d="M37.77,7.63c-.3.06-.92.35-.74.44l1.11-.34-.37-.1Z"/>
      <path class="st0" d="M36.14,9.38c.58-.05,1.58-.21,2.52-.71-1.1.24-.68.03-1.98.35-.18-.09.25-.38.66-.52-.29.06.15-.32-.55-.12-.76.52-.71.76.07.73-.22.15-.52.21-.72.28Z"/>
      <path class="st0" d="M38.51,23.64l.12-.11c-.07.04-.11.08-.12.11Z"/>
      <path class="st0" d="M38.76,32.33c-.03-.06-.15-.09-.25-.09.08.06.15.11.25.09Z"/>
      <path class="st0" d="M37.48,33.79s.05-.06.08-.08c-.11.03-.17.06-.08.08Z"/>
      <path class="st0" d="M38.51,23.64l-.32.3c.37-.05.26-.17.32-.3Z"/>
      <path class="st0" d="M39.48,10.27c-.07-.03-.19-.03-.33-.02.06.02.12.05.16.07.06-.02.11-.04.17-.06Z"/>
      <path class="st0" d="M36.77,20.09l-.02-.07c-.14.02-.3.04-.47.06h.49Z"/>
      <path class="st0" d="M35.83,17.31c-.02.08.93-.18,1.34-.28-.4.08-.6.08-.69.05-.18.05-.39.12-.66.23Z"/>
      <path class="st0" d="M35.99,12.3l-.16-.03s.1.03.16.03Z"/>
      <path class="st0" d="M37.02,22.17c-.14.04-.27.07-.34.1.12-.03.23-.06.34-.1Z"/>
      <path class="st0" d="M32.77,104.31c-.07,0-.11.01-.17.02.1,0,.17,0,.17-.02Z"/>
      <path class="st0" d="M28.39,108.37l-.06-.04c-.18.02-.37.05-.55.07l.6-.03Z"/>
      <path class="st0" d="M36.14,36.33s.01,0,.02-.01c-.11-.07-.09-.03-.02.01Z"/>
      <path class="st0" d="M30.88,60.24c.93.02.91.82,1.97.73-.38-.09-1.31-.89-1.97-.73Z"/>
      <path class="st0" d="M39.39,10.4s.05.07.06.12c0-.07,0-.1-.06-.12Z"/>
      <path class="st0" d="M32.86,60.97h0s.1,0,.1,0c-.04,0-.07,0-.11,0Z"/>
      <path class="st0" d="M36,42.32c.17.02.31.02.43.01-.1-.02-.22-.02-.43-.01Z"/>
      <path class="st0" d="M38.01,38.02l-.14.1c.09-.04.13-.07.14-.1Z"/>
      <path class="st0" d="M36.9,44.91c-.09.04-.22.04-.11.15.05,0,.09,0,.12,0-.12-.06-.18-.11,0-.15Z"/>
      <path class="st0" d="M36.33,47.35c.07,0,.14,0,.2,0,0-.03-.02-.06-.03-.09l-.17.09Z"/>
      <path class="st0" d="M31.79,96.85c-.27.06-.58.1-.88.13.7-.05.96.31.88-.13Z"/>
      <path class="st0" d="M38.96,10.47c.24-.07.36-.09.43-.07-.02-.03-.05-.05-.08-.07-.14.04-.27.09-.34.14Z"/>
      <path class="st0" d="M44.46,46.68l-.24.4c.12-.1.2-.25.24-.4Z"/>
      <path class="st0" d="M33.49,79.25l.09.11s0-.07-.09-.11Z"/>
      <path class="st0" d="M44.07,48.39c-.36,0-.57.03-.72.08.07.04.13.07.23.11l.49-.19Z"/>
      <path class="st0" d="M30.9,96.99h.01s-.01,0-.01,0Z"/>
      <path class="st0" d="M33.33,99.48c.01-.37-1.27-.11-2.01-.15-.38-.43.94-.25,1.6-.44-.35-.26-1.55-.42-1.5-.64.21-.02.29-.07.56-.03-1.04-.26-.08-.87-1.39-1.19.11-.03.22-.04.32-.05-.65.07-1.3.09-1.77.09-.03-.17-.83-.31.01-.39-.02.11.32.11.59.15l-.37-.17c1.21-.18.43.24,1.33.22-.42-.34-1.42-.74-1.07-1.01,1.19-.06.39.62,1.45.26l-.45.42c1.86-.34-.12.25,1.87-.07.34-.53-.6-.59-.25-1.12-.66-.12-.98.04-1.64-.08-1.18-.78,3-.57,1.42-1.15-.79-.16-2.29-.25-1.49-.63l1.34.17c.14-.51-1.94-.35-1.01-.87.52.12.43.42.59.35,1.06-.32-.75-.27-.74-.55h1.19c-.16-.56-.98-1.22-1.16-1.85.35.06.72.19,1.09.07-.56-.81.25-1.64,1.04-2.29l-.99-.38c.02-.06.47-.07.66.02.42-.25-.65-.08-1.03-.26-.05-.17.61-.15.91-.02-.81-.59-1.72-1.68-.54-2.07l.29.15c.47-.35-2.02-.76-1.01-1.02l.17.1c.57-.84-.21-2.01,1.46-2.43-1.43-.4.82-.76-1.2-1.21,1.1-.32,1.44-.1,2.24-.68.13-.17-1.2-.55-1.35-.84l1.06.22-1.03-.56,1.3.11-.22-.28c-.08.07-.52.08-.82,0-.4-.46.93-.69,1.47-.56l-.7-1.03c.42.12.53.29.78.47-.97-.7,1.12.19.24-.45-.25,0-.62-.18-.83-.25.69-.04.81-.49.63-.9l.7.25c.34-.55-.02-1.36.19-2.04-.4.15-1.63-.25-1.69-.49l1.12.23c-.64-.32-.48.09-1.23-.41.2-.22,1.3.18,1.61.43l-.29-.42c.33.08.48.2.9.33-.64-.32,1.25-.21.13-.74l.33.08c.21-.67-.08-1.09.03-1.66-.94-.3-.66-.45-1.37-.86.43-.32,1.31-.54,1.39-1.05-.36-.5-.76-.36-1.27-.69.86.25.94-.27,1.47.19.05-.64.08-.81-.36-1.79-.37-.04-.56,0-.83-.14-.09-.18.46-.19.86-.03l.08.07c-.99-1.28,3.13-1.09,1.6-2.38l.07.07-.68-1.02c.26-.27.57.41,1.18.36-1.15-1.24.62-1.12-.1-2.08,2.67.39.43-1.77,2.25-1.88l-.6-.17c-.52-.37.41-.09.59-.17-.46-.14-.59,0-.88-.22-.2-1.68,1.89-2.7,2.93-4.05.34-.51-2.96-1.31-1.32-1.56l1.04.55c-.95-1.54.78-2.32-.03-3.78.24.14.57.24.53.35.88,0,.3-.87-.36-1.06.13-.15.61.13.98.11.54-.11-.88-.89-.03-.8.14.01.25.14.3.2-.35-.26.29-.71-.68-.81.56-.31-.2-.92.44-1.13-.99-.48.69-.62-.79-1.04,1.53.4,1.41-.48.75-.91.45.2.54-.13,1.16.12.05-.32-.17-.68-.98-.79,1.99-.2-1.25-1.46,1.19-1.33-.68-1.12-1.06-2.07-1.32-2.97,1.57.26.02.96,1.66,1.18-.49-.92-1.81-1.58-1.32-2.32.24-.18.67.2.92.31-.54-.89.36-1.57-.46-2.38.15.01.3.11.41.19-.04-.15.26-.32-.46-.36l.18.16c-1.05.13-2.13-.75-2.67-.81,2.03.4.57-.66,3.13-.09-.13-.1-.46-.25-.94-.26.15-.13.43-.16.97.02-.35-.54-1.13-.4-1.08-.86.35.02.47.12.88.19-.66-.28-1.31-.54-1.02-.91.21.03.48,0,.47.11-.09-.69-1.78-1.19-1.11-1.9,1.51.23.5-.24,1.81-.28l-.38-.4-.64.16c.03-.35-.92-.64-.51-.94l.55.25-.27-.64-.48.37c-.69-.33-1.65.07-1.3-.38.14.09,0-.33.77-.53h0c-.42-.15-.87-.3-.55-.56.41-.08,1.45-.01,1.72-.07-1.1-.12-.33-.79-1.5-.93.28.05.96.01,1.1-.02l-.89-.08c.28-.17.41-.21.96-.22.12-.49-1.64.27-.98-.34.08.04.21,0,.35.09.32-.59-.67-1.03-.28-1.59,1.29-.29.36.42,1.45.14-.32-.74-1.69-1.39-1.52-2.13l-.12.15c-1.85.16.83-.66-.1-.9.15.07,1.04-.04.83-.03.22-.54-.61-.94-1.3-1.58h.48c.38-.36.11-.8.25-1.14-.49,0-.45-.19-1.11.05,2.45-1.51-1.81-1.48.22-2.81.03.1.46.14.44.06-.19-.21-.39-.41-.6-.61-.77.25-.45.21-1.02.51-.49.03-.9-.08-.95-.25.6.18,1.26-.32,1.66-.57-.23.08-.51.1-.75.18,1.29-.72-1.59.35-.79-.39l.42-.08c-.26-.13-.85-.15-.79-.38.88-.33.47.08,1.22-.11-.13-.27-1.86-.08-1.03-.59.28.05.33.22.62.27.98-.57.7-.53.81-.79l-.02.03.35-.62-.25.21c-2.44.33-.61-.61-2.31-.6,1.59,0,.86-.18,1.89-.46.24-.21.5-.49.8-.52-.89.03.52-.58-.78-.52.32-.12-.05-.25.79-.46-.35-.21-.54.25-.96.36-1.25-.08.99-1.51-.74-1.64-.81-.34-1.91-.06-2.65-.35.45-.35,1.22-.29,1.22-.29.37-.44.2-.62-.26-.74.3-.05.52-.19.84-.4-.16-.18-1.22.3-.85-.15.37-.09.97-.24,1.36-.27-.39-.14-1.08-.15-1.46-.29.53-.28.9-.17,1.3-.22-.36-.19-.79-.55-1.7-.29l-.24.3c-.08-.09.73-.35.92-.33.78-.02-.17.47-.48.61l-.27-.1c-1.8.9.57.6.61,1l-1.42.36,1.27-.06c-.33.21-1.07.54-1.34.44-.58.5.57.05-.1.54-.11.07-.18.08-.24.08l.5.1c-.31.06-.95.39-.81.17-.61.72,1.28.35.3.89h-.1c.67.45,1.03-.3,2.37-.23l-2.39,1.16,1.03-.28c-.02.08-.05.23-.46.34.77,0,.43-.19,1.13-.27-.82.61.72.72-.88,1.31.81-.13.5-.49,1.15-.33-1.71.65.43.29-.28.83-.93.19-.54-.22-1.25.31,1.58-.3-.15.65.2.79,1.22-.35.65.37,1.17.66-.42.09-.47.95-.81,1.43l-.21.04c1.26-.26,1.13.19,1.47.41-.75.18-1.06.2-1.43.13l.08.26c.42-.04.65,0,.84.13l-.95.16c.14.33,1.26.44.73,1.04.88-.17,2.35-.93,3.04-.56-.47.12-1.27.32-1.49.24.07.03.43.06.24.19l-.84-.02c-.3.29.69-.04.65.15-.68.15-.45.23-1,.32-.07-.03.25-.21-.03-.21-.08.21-.43.53-.93.71.38-.1.91-.19,1.03-.08.13.34-.79.29-1.09.57.49-.01.05.31,1.06.11.02.1-.45.22-.72.31.49.09.31.82,1.35.41l.06-.06s.03.02.05.02h0s0,0,0,0c1.11.43-.38,1.37.15,1.89l-.34.05c.45.3.36.76,1.13.92.02.11-.59.33-1,.34.3.24.68.23.15.69-.63-.21-.52.16-.47-.23-.26.39-.81.53.17.81-.89-.03-1.08.38-.8.52l.61-.31c.15.18.08.35.03.52l-1.17.02c-1.35.81,2.55,1.11.19,1.81.82.14.56-.42,1.52-.31-.14.35-1.8.78-1.8.88-.63.47,1.72.35,1.29.84.41-.07,1.52-.17,1.92.19-.14.35-1.73.45-2.07.25-.04-.08.09-.12.23-.12-.15-.1-.34-.24-.78-.1l.42.03c-.42.17-.35.62-1.04.53.41.24.69.1.89-.09-.58.43-.02.66-.43,1.09.23-.07.72-.13.71-.06-.53.64.78.29.96.74-.64.24-1.51-.12-.99.33-.43.25-1.1.02-1.44-.09.79.41-.54.71-.69.92l-.33-.22c.2.13.19.23.18.33l.83-.08c-.15.11-.16.21-.51.19.53.15,1.39-.03,2.11.26-.43.14.41.53-.69.52.41-.49-1.11-.01-1.25-.45.13.09.11.19-.04.3-.12.01-.23-.03-.29-.07-1.02.41,1.23.3,1.16.8-.61-.11-1.18.02-1.06.11.03-.2,1.04-.02,1.5.21-.51.28.33.39.26.55l.24-.18c.61.12.52.28.7.53-.48-.03-.32-.24-.53-.18,1.07.37-1.18.46-.5.89-.44.12-1.16-.12-1.46,0,.75.48-.9.31-.29.8.84,0,.64-.06,1.41.34l-.5-.75,1.15.59c.04-.21-.46-.5-.31-.61.65.29.45.25,1.15.23-1.28.13.65.67-.23.89l-2.05-.29c-.97.35.94,1.02.31,1.57l.39-.15c.8.22.04.41.34.67-.68-.14-.95-.05-1.39-.04.51.08-.13.45,1.22.76l-.94.11c-.45.43,1.82.97,1.48,1.42-.7-.3-1.23-.18-1.68-.62-.04.16-.2.28.27.38-.44,0,.81.65.13.66.28.13.98.31.89.49-.14-.01-.33-.08-.33-.08.33.07.39.4,1.17.4-2.2.03-.18,1.49-2.1,1.48.13.42.23.91.2,1.25-.19-.08-.33-.09-.25-.13-.74.28,1.85.8,1.01,1.13-1.15-.04-.5-.44-.96-.39-2.21-.54.12.7-1.26.68l-.1-.12c-.82.04.64.88.36,1.26,0,0-.19-.08-.33-.1,1.03.63,1.22,1.3,1.39,1.81-.81-.4-.39-.33-1.28-.52.06.22,1.4.38,1.53.83-.5-.02-.99.11-1.92-.14l.06-.36c-1.25-.2-.1.46-.37.58l-.51-.19c0,.58,1.31,1.02,1.02,1.56l.41.07c1.19.74-.82.02.04.66l-1.34-.34c.25.31,1.02,1.15,1.14,1.61-.9-.54-1.25-1.14-1.73-1.61-.08.2-.14.73.47,1.05-.1-.13-.38-.34-.15-.35.94.6,1.34,1.11,1.17,1.51-2.5-.95-1.01.85-3.08.46.68,1.05-.9,1.29-1.05,2.2,2.07.39-.03.27,2.01.93.06.24,0,.31-.14.28l-1.42.18c-.64-.06-.38-.34-.84-.49-.31.38-.92-.12-1.56-.02.74.2.98.51.62.67l1.05-.02c.86.98-1.88-.07-1.03.92l-.57-.42c.26.45-.42,1.17,1.1,2.04-.25-.02-.83-.14-.93-.33-.51.67,1.16,2.29-.05,2.54l-.48-.22c.1.19.85.56.29.57-.2-.08-.48-.22-.53-.17.15.13.74.67.39.76l-.5-.35c-.9.54.99,1.61,1.13,2.34-1.47-.47-2.14-.02-2.47.2l-.2-.07c-.46.83.77,1.9,1.1,2.88-1.77.05-1.17,1.55-2.29,2.15.31-.06,1.16.33,1.27.51-.35.12.89.8-.47.42l.04-.06c-1.38-.19-1.13.3-1.25.61l1.78.49c-2.81.21.47,2.39-1.99,2.32.41.3.34.55.76.84l-.97-.21c-.36.52-.53.78-.43,1.53l-.67-.28c-.14.39,2.71,1.02,2.7,1.39l-1.48-.15c-.12.68-1.49,1.19-.27,2.08-.21-.04-.63-.13-.67-.25-.09.32-1.18,1.14.85,1.29-1.31-.17-.24.7.3,1.14l-.96-.18c1.2.47,1.54.52,1.84.99-.14.09-.79,0-.52-.11-.54.29.89.37.33.73l-.6-.22c-.11.35.22.36.93.62.37.26-.31.64-1.2.61.53.1,1.23.35.95.54-.33,0-.53-.09-.63-.14-.73.54,1.06.97.08,1.31-.32-.01-.49,0-.58.03.05-.47.13-.85.2-.81-.9-.07-1.08.31-2.3-.1.66.37,2.1,1.01,1.65,1.35-.09.01-.17.02-.31.03l-.1-.05c-.09.08-.02.17.13.25-.15.11-.27.18-.29.3-.74,0-.43.43-.47.62.98.03.81.28,1.64.08-.07.03-.12-.04-.15-.17-.03-.03-.04-.06-.1-.09.03,0,.06.01.09.02-.02-.13-.03-.29-.04-.48.49.18.9.36.34.54.61.13,1.25.27,1.57.34-1.39.19-2.16.67-3,.71.53.61.34,1.41,2.18,1.8.24.17-.53.18-.82.24-.18-.1-.15-.21-.42-.27.47.34.17.99,1.46,1.07-.59.41-1.19-.23-.98.34l-.39-.08c-2.09,1.18,3.33,1.76.72,3.07.16-.09.23-.14.45-.16-.55.73-.27,1.45-.03,2.16.25.71.41,1.41-.45,2.19-.34.43.49.4,1.13.58l-1.04.19,1.25.29c.93.48-2.46,1.29-.69,1.84l.69-.18c-.1.28.53.78-.29.84.13.01.75,0,.39.14l-.55.08,1.02.52c-.33.56-2.18.22-2.19.98.25.25,1.7.54,2.05.38.01-.11.3-.33.85-.42l.32.2c1.62-.2,3.29-.28,4.34-1.02l-1.04-.25.77-.24.09.33c.71-.3.04-.32-.42-.39.41-.09.7-.19.84-.29l-1.59-.18c.63-.13,1.28,0,1.59-.3-.74-.09-1.39.37-1.9.12.71-.29,1.31-.31.66-.46.41-.09.68-.07.88,0-.53-.13-.28-.5-1.15-.5.88-.31-.33-.65,1.21-.81-.38-.02-1.25-.21-1.34-.39,1.87.14.04-.7,2.02-.81-1.67-.08-.81-.81-1.76-1.17.13.01.4.04.32.08.12-.26.61-.37.91-.55-1.37.08-1.71-.28-2.58-.44,1.29-.4,1.62.07,2.88-.12-1.11.1-1.15-.44-2.07-.28.8-.29.38-.23,1.5-.42-1.71.07-.32-.2-1.37-.33.83-.39,1.6-.18,1.07-.52.52-.2,1.14.09,1.14.09ZM30.41,90.73s.02,0,.02,0c.02.08.03.14.05.19-.01-.04-.03-.09-.06-.19ZM30.44,89.99c-.04.09-.06.2-.06.32-.34,0-.69-.05-.67-.13.22.06.43-.11.72-.2ZM23.54,91.2c-.13-.14.06-.17.27-.18.01.06.04.13.1.23.04,0,.08.01.12.02-.19-.02-.36-.05-.49-.08Z"/>
      <path class="st0" d="M24.82,91.5s.06.03.07.06c.09-.02.16-.04.23-.06-.1-.02-.21-.04-.31-.06v.07Z"/>
      <path class="st0" d="M38.65,23.5l-.02.02s.07-.04.13-.06c-.05.02-.07.03-.11.04Z"/>
      <polygon class="st0" points="33.78 80.16 33.54 80.11 33.73 80.22 33.78 80.16"/>
      <path class="st0" d="M41,18.6c.08-.03.16-.07.23-.12-.06.02-.14.06-.23.12Z"/>
      <path class="st0" d="M40.71,16.71l.27-.36c-.16.17-.23.28-.27.36Z"/>
      <path class="st0" d="M40.78,15.16c-.17.03-.3.07-.41.1h0s.42-.1.42-.1Z"/>
      <path class="st0" d="M44.57,38.52s.02.04.04.06c.18.15.11.05-.04-.06Z"/>
      <path class="st0" d="M42.46,31.43c.18.07.36.13.47.21.07-.13.09-.22-.47-.21Z"/>
      <path class="st0" d="M44.49,46.64h-.02s0,.03-.01.04l.03-.04Z"/>
      <path class="st0" d="M42.93,31.96c.19-.13.15-.23,0-.32-.06.1-.16.23,0,.32Z"/>
      <path class="st0" d="M39.1,9.02v-.08s-.1.04-.14.05l.14.03Z"/>
      <path class="st0" d="M38.96,8.99l-.14-.03s.03.06.14.03Z"/>
      <path class="st0" d="M38.53,8.9l.29.06c-.02-.05-.01-.13-.29-.06Z"/>
      <path class="st0" d="M39.37,10.99l.34-.1c-.07.01-.19.05-.34.1Z"/>
      <path class="st0" d="M39.67,11.5c.03-.16.59-.59.31-.69l-.27.08c.53-.09-.65.69-.04.61Z"/>
      <path class="st0" d="M36.25,15.2l.12-.53c-.34.2-.79.46-.94.29-.89.91.77-.38.82.25Z"/>
      <path class="st0" d="M36.18,16.74c-.25-.19-.53.16-.74.21.38.05.48.06.74-.21Z"/>
      <path class="st0" d="M38.37,26.82l-.89.09c.15.17.35-.04.89-.09Z"/>
      <polygon class="st0" points="43.17 28.36 43.71 28.11 42.88 28.09 43.17 28.36"/>
      <polygon class="st0" points="36.93 30.05 36.79 29.98 37.13 30.26 36.93 30.05"/>
      <path class="st0" d="M35.6,46.71l1.08.21c-.16-.17-1.36-.5-1.08-.21Z"/>
      <path class="st0" d="M34.55,54.25c-.55-.09-.96,0-.48.29.13-.14.59-.17.48-.29Z"/>
      <polygon class="st0" points="25.62 76.18 25.3 75.94 25.53 76.31 25.62 76.18"/>
    </g>
  </g>
</svg>