<?xml version="1.0" encoding="utf-8" ?> 
<svg baseProfile="full" height="170px" version="1.1" viewBox="15,15,170,170" width="170px" xmlns="http://www.w3.org/2000/svg" xmlns:ev="http://www.w3.org/2001/xml-events" xmlns:xlink="http://www.w3.org/1999/xlink"><defs /><g><circle cx="165.0" cy="100.0" fill="#3763AF" r="14.7329" stroke="black" stroke-width="2.6" /><rect fill="#F58220" height="26.0" stroke="black" stroke-width="2.6" transform="rotate(60,156.29165124598853,67.5)" width="26.0" x="143.29165124598853" y="54.5" /><circle cx="132.5" cy="43.70834875401149" fill="#00A995" r="14.7329" stroke="black" stroke-width="2.6" /><rect fill="#DA1E48" height="26.0" stroke="black" stroke-width="2.6" transform="rotate(0,100.0,35.0)" width="26.0" x="87.0" y="22.0" /><circle cx="67.50000000000001" cy="43.70834875401148" fill="#A6CE39" r="14.7329" stroke="black" stroke-width="2.6" /><rect fill="#823F98" height="26.0" stroke="black" stroke-width="2.6" transform="rotate(-60,43.70834875401148,67.5)" width="26.0" x="30.70834875401148" y="54.5" /><circle cx="35.0" cy="99.99999999999999" fill="#fdbb13" r="14.7329" stroke="black" stroke-width="2.6" /><rect fill="#0098DD" height="26.0" stroke="black" stroke-width="2.6" transform="rotate(-120,43.70834875401149,132.5)" width="26.0" x="30.70834875401149" y="119.5" /><circle cx="67.49999999999997" cy="156.2916512459885" fill="#F04E23" r="14.7329" stroke="black" stroke-width="2.6" /><rect fill="#39B54A" height="26.0" stroke="black" stroke-width="2.6" transform="rotate(-180,99.99999999999999,165.0)" width="26.0" x="86.99999999999999" y="152.0" /><circle cx="132.5" cy="156.2916512459885" fill="#AB218E" r="14.7329" stroke="black" stroke-width="2.6" /><rect fill="#F3DC0B" height="26.0" stroke="black" stroke-width="2.6" transform="rotate(-240,156.2916512459885,132.50000000000003)" width="26.0" x="143.2916512459885" y="119.50000000000003" /></g></svg>