<?xml version="1.0" encoding="utf-8" ?>
<svg baseProfile="full" height="230px" version="1.1" viewBox="-15,-15,230,230" width="230px" xmlns="http://www.w3.org/2000/svg" xmlns:ev="http://www.w3.org/2001/xml-events" xmlns:xlink="http://www.w3.org/1999/xlink"><defs /><g><circle cx="52.50000000000002" cy="17.72758664047832" fill="#A6CE39" r="18.1328" stroke="black" stroke-width="3.2" /><rect fill="#823F98" height="32.0" stroke="black" stroke-width="3.2" transform="rotate(-60,17.72758664047832,52.50000000000001)" width="32.0" x="1.7275866404783216" y="36.50000000000001" /><circle cx="5.0" cy="99.99999999999999" fill="#fdbb13" r="18.1328" stroke="black" stroke-width="3.2" /><rect fill="#0098DD" height="32.0" stroke="black" stroke-width="3.2" transform="rotate(-120,17.727586640478336,147.5)" width="32.0" x="1.7275866404783358" y="131.5" /><circle cx="52.49999999999996" cy="182.27241335952164" fill="#F04E23" r="18.1328" stroke="black" stroke-width="3.2" /><rect fill="#39B54A" height="32.0" stroke="black" stroke-width="3.2" transform="rotate(-180,99.99999999999999,195.0)" width="32.0" x="83.99999999999999" y="179.0" /><circle cx="147.5" cy="182.27241335952166" fill="#AB218E" r="18.1328" stroke="black" stroke-width="3.2" /><rect fill="#F3DC0B" height="32.0" stroke="black" stroke-width="3.2" transform="rotate(-240,182.27241335952164,147.50000000000006)" width="32.0" x="166.27241335952164" y="131.50000000000006" /><circle cx="195.0" cy="100.0" fill="#3763AF" r="18.1328" stroke="black" stroke-width="3.2" /><rect fill="#F58220" height="32.0" stroke="black" stroke-width="3.2" transform="rotate(60,182.2724133595217,52.50000000000001)" width="32.0" x="166.2724133595217" y="36.50000000000001" /><circle cx="147.5" cy="17.727586640478336" fill="#00A995" r="18.1328" stroke="black" stroke-width="3.2" /><rect fill="#DA1E48" height="32.0" stroke="black" stroke-width="3.2" transform="rotate(0,100.0,5.0)" width="32.0" x="84.0" y="-11.0" /></g></svg>