<svg xmlns="http://www.w3.org/2000/svg" viewBox="0 0 170 170" width="170px" height="170px">
  <g>
    <circle cx="150" cy="85" r="8.5" fill="#3763AF" stroke="black" stroke-width="2"/>
    <rect x="133.79" y="45" width="15" height="15" fill="#F58220" stroke="black" stroke-width="2" transform="rotate(60,141.29,52.5)"/>
    <circle cx="117.5" cy="28.71" r="8.5" fill="#00A995" stroke="black" stroke-width="2"/>
    <rect x="77.5" y="12.5" width="15" height="15" fill="#DA1E48" stroke="black" stroke-width="2" transform="rotate(0,85,20)"/>
    <circle cx="52.5" cy="28.71" r="8.5" fill="#A6CE39" stroke="black" stroke-width="2"/>
    <rect x="21.21" y="45" width="15" height="15" fill="#823F98" stroke="black" stroke-width="2" transform="rotate(-60,28.71,52.5)"/>
    <circle cx="20" cy="85" r="8.5" fill="#fdbb13" stroke="black" stroke-width="2"/>
    <rect x="21.21" y="110" width="15" height="15" fill="#0098DD" stroke="black" stroke-width="2" transform="rotate(-120,28.71,117.5)"/>
    <circle cx="52.5" cy="141.29" r="8.5" fill="#F04E23" stroke="black" stroke-width="2"/>
    <rect x="77.5" y="142.5" width="15" height="15" fill="#39B54A" stroke="black" stroke-width="2" transform="rotate(-180,85,150)"/>
    <circle cx="117.5" cy="141.29" r="8.5" fill="#AB218E" stroke="black" stroke-width="2"/>
    <rect x="133.79" y="110" width="15" height="15" fill="#F3DC0B" stroke="black" stroke-width="2" transform="rotate(-240,141.29,117.5)"/>
  </g>
</svg>
